<mxfile host="app.diagrams.net" agent="Mozilla/5.0 (Windows NT 10.0; Win64; x64) AppleWebKit/537.36 (KHTML, like Gecko) Chrome/128.0.0.0 Safari/537.36 OPR/114.0.0.0" version="25.0.3">
  <diagram name="PÃ¡gina-1" id="Ah8NjZ5Xg5xbvG-C6Z_T">
    <mxGraphModel dx="1391" dy="731" grid="1" gridSize="10" guides="1" tooltips="1" connect="1" arrows="1" fold="1" page="1" pageScale="1" pageWidth="827" pageHeight="1169" math="0" shadow="0">
      <root>
        <mxCell id="0" />
        <mxCell id="1" parent="0" />
        <mxCell id="hnj8AC3YeiDMYb95IlZ8-1" value="Inicio" style="strokeWidth=2;html=1;shape=mxgraph.flowchart.start_1;whiteSpace=wrap;" vertex="1" parent="1">
          <mxGeometry x="350" y="50" width="100" height="60" as="geometry" />
        </mxCell>
        <mxCell id="hnj8AC3YeiDMYb95IlZ8-2" value="produto" style="html=1;strokeWidth=2;shape=manualInput;whiteSpace=wrap;rounded=1;size=26;arcSize=11;" vertex="1" parent="1">
          <mxGeometry x="350" y="140" width="100" height="60" as="geometry" />
        </mxCell>
        <mxCell id="hnj8AC3YeiDMYb95IlZ8-3" value="valor" style="html=1;strokeWidth=2;shape=manualInput;whiteSpace=wrap;rounded=1;size=26;arcSize=11;" vertex="1" parent="1">
          <mxGeometry x="350" y="230" width="100" height="60" as="geometry" />
        </mxCell>
        <mxCell id="hnj8AC3YeiDMYb95IlZ8-9" style="edgeStyle=orthogonalEdgeStyle;rounded=0;orthogonalLoop=1;jettySize=auto;html=1;exitX=0.5;exitY=1;exitDx=0;exitDy=0;entryX=0.5;entryY=0;entryDx=0;entryDy=0;" edge="1" parent="1" source="hnj8AC3YeiDMYb95IlZ8-4" target="hnj8AC3YeiDMYb95IlZ8-8">
          <mxGeometry relative="1" as="geometry" />
        </mxCell>
        <mxCell id="hnj8AC3YeiDMYb95IlZ8-4" value="estado" style="html=1;strokeWidth=2;shape=manualInput;whiteSpace=wrap;rounded=1;size=26;arcSize=11;" vertex="1" parent="1">
          <mxGeometry x="350" y="320" width="100" height="60" as="geometry" />
        </mxCell>
        <mxCell id="hnj8AC3YeiDMYb95IlZ8-5" style="edgeStyle=orthogonalEdgeStyle;rounded=0;orthogonalLoop=1;jettySize=auto;html=1;exitX=0.5;exitY=1;exitDx=0;exitDy=0;exitPerimeter=0;entryX=0.5;entryY=0.233;entryDx=0;entryDy=0;entryPerimeter=0;" edge="1" parent="1" source="hnj8AC3YeiDMYb95IlZ8-1" target="hnj8AC3YeiDMYb95IlZ8-2">
          <mxGeometry relative="1" as="geometry" />
        </mxCell>
        <mxCell id="hnj8AC3YeiDMYb95IlZ8-6" style="edgeStyle=orthogonalEdgeStyle;rounded=0;orthogonalLoop=1;jettySize=auto;html=1;exitX=0.5;exitY=1;exitDx=0;exitDy=0;entryX=0.5;entryY=0.25;entryDx=0;entryDy=0;entryPerimeter=0;" edge="1" parent="1" source="hnj8AC3YeiDMYb95IlZ8-2" target="hnj8AC3YeiDMYb95IlZ8-3">
          <mxGeometry relative="1" as="geometry" />
        </mxCell>
        <mxCell id="hnj8AC3YeiDMYb95IlZ8-7" style="edgeStyle=orthogonalEdgeStyle;rounded=0;orthogonalLoop=1;jettySize=auto;html=1;exitX=0.5;exitY=1;exitDx=0;exitDy=0;entryX=0.5;entryY=0.267;entryDx=0;entryDy=0;entryPerimeter=0;" edge="1" parent="1" source="hnj8AC3YeiDMYb95IlZ8-3" target="hnj8AC3YeiDMYb95IlZ8-4">
          <mxGeometry relative="1" as="geometry" />
        </mxCell>
        <mxCell id="hnj8AC3YeiDMYb95IlZ8-8" value="Move 0 frete" style="rounded=1;whiteSpace=wrap;html=1;absoluteArcSize=1;arcSize=14;strokeWidth=2;" vertex="1" parent="1">
          <mxGeometry x="350" y="430" width="100" height="40" as="geometry" />
        </mxCell>
        <mxCell id="hnj8AC3YeiDMYb95IlZ8-17" style="edgeStyle=orthogonalEdgeStyle;rounded=0;orthogonalLoop=1;jettySize=auto;html=1;exitX=1;exitY=0.5;exitDx=0;exitDy=0;exitPerimeter=0;entryX=0;entryY=0.5;entryDx=0;entryDy=0;" edge="1" parent="1" source="hnj8AC3YeiDMYb95IlZ8-10" target="hnj8AC3YeiDMYb95IlZ8-14">
          <mxGeometry relative="1" as="geometry" />
        </mxCell>
        <mxCell id="hnj8AC3YeiDMYb95IlZ8-10" value="Estado = SP" style="strokeWidth=2;html=1;shape=mxgraph.flowchart.decision;whiteSpace=wrap;" vertex="1" parent="1">
          <mxGeometry x="350" y="610" width="100" height="60" as="geometry" />
        </mxCell>
        <mxCell id="hnj8AC3YeiDMYb95IlZ8-18" style="edgeStyle=orthogonalEdgeStyle;rounded=0;orthogonalLoop=1;jettySize=auto;html=1;exitX=1;exitY=0.5;exitDx=0;exitDy=0;exitPerimeter=0;entryX=0;entryY=0.5;entryDx=0;entryDy=0;" edge="1" parent="1" source="hnj8AC3YeiDMYb95IlZ8-12" target="hnj8AC3YeiDMYb95IlZ8-15">
          <mxGeometry relative="1" as="geometry" />
        </mxCell>
        <mxCell id="hnj8AC3YeiDMYb95IlZ8-12" value="Estado = RJ" style="strokeWidth=2;html=1;shape=mxgraph.flowchart.decision;whiteSpace=wrap;" vertex="1" parent="1">
          <mxGeometry x="350" y="700" width="100" height="60" as="geometry" />
        </mxCell>
        <mxCell id="hnj8AC3YeiDMYb95IlZ8-19" style="edgeStyle=orthogonalEdgeStyle;rounded=0;orthogonalLoop=1;jettySize=auto;html=1;exitX=1;exitY=0.5;exitDx=0;exitDy=0;exitPerimeter=0;entryX=0;entryY=0.5;entryDx=0;entryDy=0;" edge="1" parent="1" source="hnj8AC3YeiDMYb95IlZ8-13" target="hnj8AC3YeiDMYb95IlZ8-16">
          <mxGeometry relative="1" as="geometry" />
        </mxCell>
        <mxCell id="hnj8AC3YeiDMYb95IlZ8-13" value="Estado = MG" style="strokeWidth=2;html=1;shape=mxgraph.flowchart.decision;whiteSpace=wrap;" vertex="1" parent="1">
          <mxGeometry x="350" y="800" width="100" height="60" as="geometry" />
        </mxCell>
        <mxCell id="hnj8AC3YeiDMYb95IlZ8-14" value="frete = valor * 0.1" style="rounded=1;whiteSpace=wrap;html=1;absoluteArcSize=1;arcSize=14;strokeWidth=2;" vertex="1" parent="1">
          <mxGeometry x="490" y="620" width="100" height="40" as="geometry" />
        </mxCell>
        <mxCell id="hnj8AC3YeiDMYb95IlZ8-15" value="frete = valor * 0.2&lt;span style=&quot;color: rgba(0, 0, 0, 0); font-family: monospace; font-size: 0px; text-align: start; text-wrap: nowrap;&quot;&gt;%3CmxGraphModel%3E%3Croot%3E%3CmxCell%20id%3D%220%22%2F%3E%3CmxCell%20id%3D%221%22%20parent%3D%220%22%2F%3E%3CmxCell%20id%3D%222%22%20value%3D%22frete%20%3D%20valor%20*%200.1%22%20style%3D%22rounded%3D1%3BwhiteSpace%3Dwrap%3Bhtml%3D1%3BabsoluteArcSize%3D1%3BarcSize%3D14%3BstrokeWidth%3D2%3B%22%20vertex%3D%221%22%20parent%3D%221%22%3E%3CmxGeometry%20x%3D%22490%22%20y%3D%22520%22%20width%3D%22100%22%20height%3D%2240%22%20as%3D%22geometry%22%2F%3E%3C%2FmxCell%3E%3C%2Froot%3E%3C%2FmxGraphModel%3E&lt;/span&gt;" style="rounded=1;whiteSpace=wrap;html=1;absoluteArcSize=1;arcSize=14;strokeWidth=2;" vertex="1" parent="1">
          <mxGeometry x="490" y="710" width="100" height="40" as="geometry" />
        </mxCell>
        <mxCell id="hnj8AC3YeiDMYb95IlZ8-16" value="frete = valor * 0.15" style="rounded=1;whiteSpace=wrap;html=1;absoluteArcSize=1;arcSize=14;strokeWidth=2;" vertex="1" parent="1">
          <mxGeometry x="490" y="810" width="100" height="40" as="geometry" />
        </mxCell>
        <mxCell id="hnj8AC3YeiDMYb95IlZ8-20" style="edgeStyle=orthogonalEdgeStyle;rounded=0;orthogonalLoop=1;jettySize=auto;html=1;exitX=0.5;exitY=1;exitDx=0;exitDy=0;exitPerimeter=0;entryX=0.5;entryY=0;entryDx=0;entryDy=0;entryPerimeter=0;" edge="1" parent="1" source="hnj8AC3YeiDMYb95IlZ8-10" target="hnj8AC3YeiDMYb95IlZ8-12">
          <mxGeometry relative="1" as="geometry" />
        </mxCell>
        <mxCell id="hnj8AC3YeiDMYb95IlZ8-21" style="edgeStyle=orthogonalEdgeStyle;rounded=0;orthogonalLoop=1;jettySize=auto;html=1;exitX=0.5;exitY=1;exitDx=0;exitDy=0;exitPerimeter=0;entryX=0.5;entryY=0;entryDx=0;entryDy=0;entryPerimeter=0;" edge="1" parent="1" source="hnj8AC3YeiDMYb95IlZ8-12" target="hnj8AC3YeiDMYb95IlZ8-13">
          <mxGeometry relative="1" as="geometry" />
        </mxCell>
        <mxCell id="hnj8AC3YeiDMYb95IlZ8-23" value="" style="verticalLabelPosition=bottom;verticalAlign=top;html=1;shape=mxgraph.flowchart.on-page_reference;" vertex="1" parent="1">
          <mxGeometry x="660" y="620" width="40" height="40" as="geometry" />
        </mxCell>
        <mxCell id="hnj8AC3YeiDMYb95IlZ8-24" value="" style="verticalLabelPosition=bottom;verticalAlign=top;html=1;shape=mxgraph.flowchart.on-page_reference;" vertex="1" parent="1">
          <mxGeometry x="660" y="710" width="40" height="40" as="geometry" />
        </mxCell>
        <mxCell id="hnj8AC3YeiDMYb95IlZ8-25" value="" style="verticalLabelPosition=bottom;verticalAlign=top;html=1;shape=mxgraph.flowchart.on-page_reference;" vertex="1" parent="1">
          <mxGeometry x="660" y="810" width="40" height="40" as="geometry" />
        </mxCell>
        <mxCell id="hnj8AC3YeiDMYb95IlZ8-26" style="edgeStyle=orthogonalEdgeStyle;rounded=0;orthogonalLoop=1;jettySize=auto;html=1;exitX=1;exitY=0.5;exitDx=0;exitDy=0;entryX=0;entryY=0.5;entryDx=0;entryDy=0;entryPerimeter=0;" edge="1" parent="1" source="hnj8AC3YeiDMYb95IlZ8-14" target="hnj8AC3YeiDMYb95IlZ8-23">
          <mxGeometry relative="1" as="geometry" />
        </mxCell>
        <mxCell id="hnj8AC3YeiDMYb95IlZ8-27" style="edgeStyle=orthogonalEdgeStyle;rounded=0;orthogonalLoop=1;jettySize=auto;html=1;exitX=0.5;exitY=1;exitDx=0;exitDy=0;exitPerimeter=0;entryX=0.5;entryY=0;entryDx=0;entryDy=0;entryPerimeter=0;" edge="1" parent="1" source="hnj8AC3YeiDMYb95IlZ8-23" target="hnj8AC3YeiDMYb95IlZ8-24">
          <mxGeometry relative="1" as="geometry" />
        </mxCell>
        <mxCell id="hnj8AC3YeiDMYb95IlZ8-28" style="edgeStyle=orthogonalEdgeStyle;rounded=0;orthogonalLoop=1;jettySize=auto;html=1;exitX=0.5;exitY=1;exitDx=0;exitDy=0;exitPerimeter=0;entryX=0.5;entryY=0;entryDx=0;entryDy=0;entryPerimeter=0;" edge="1" parent="1" source="hnj8AC3YeiDMYb95IlZ8-24" target="hnj8AC3YeiDMYb95IlZ8-25">
          <mxGeometry relative="1" as="geometry" />
        </mxCell>
        <mxCell id="hnj8AC3YeiDMYb95IlZ8-29" style="edgeStyle=orthogonalEdgeStyle;rounded=0;orthogonalLoop=1;jettySize=auto;html=1;exitX=1;exitY=0.5;exitDx=0;exitDy=0;entryX=0;entryY=0.5;entryDx=0;entryDy=0;entryPerimeter=0;" edge="1" parent="1" source="hnj8AC3YeiDMYb95IlZ8-15" target="hnj8AC3YeiDMYb95IlZ8-24">
          <mxGeometry relative="1" as="geometry" />
        </mxCell>
        <mxCell id="hnj8AC3YeiDMYb95IlZ8-30" style="edgeStyle=orthogonalEdgeStyle;rounded=0;orthogonalLoop=1;jettySize=auto;html=1;exitX=1;exitY=0.5;exitDx=0;exitDy=0;entryX=0;entryY=0.5;entryDx=0;entryDy=0;entryPerimeter=0;" edge="1" parent="1" source="hnj8AC3YeiDMYb95IlZ8-16" target="hnj8AC3YeiDMYb95IlZ8-25">
          <mxGeometry relative="1" as="geometry" />
        </mxCell>
        <mxCell id="hnj8AC3YeiDMYb95IlZ8-34" style="edgeStyle=orthogonalEdgeStyle;rounded=0;orthogonalLoop=1;jettySize=auto;html=1;exitX=0.5;exitY=1;exitDx=0;exitDy=0;exitPerimeter=0;entryX=0.5;entryY=0;entryDx=0;entryDy=0;entryPerimeter=0;" edge="1" parent="1" source="hnj8AC3YeiDMYb95IlZ8-13" target="hnj8AC3YeiDMYb95IlZ8-35">
          <mxGeometry relative="1" as="geometry">
            <mxPoint x="400" y="890" as="targetPoint" />
          </mxGeometry>
        </mxCell>
        <mxCell id="hnj8AC3YeiDMYb95IlZ8-44" value="" style="edgeStyle=orthogonalEdgeStyle;rounded=0;orthogonalLoop=1;jettySize=auto;html=1;" edge="1" parent="1" source="hnj8AC3YeiDMYb95IlZ8-35" target="hnj8AC3YeiDMYb95IlZ8-41">
          <mxGeometry relative="1" as="geometry" />
        </mxCell>
        <mxCell id="hnj8AC3YeiDMYb95IlZ8-35" value="Estado = Outro" style="strokeWidth=2;html=1;shape=mxgraph.flowchart.decision;whiteSpace=wrap;" vertex="1" parent="1">
          <mxGeometry x="350" y="970" width="100" height="60" as="geometry" />
        </mxCell>
        <mxCell id="hnj8AC3YeiDMYb95IlZ8-36" value="produto&lt;div&gt;valor&lt;/div&gt;&lt;div&gt;estado&lt;/div&gt;" style="strokeWidth=2;html=1;shape=mxgraph.flowchart.display;whiteSpace=wrap;" vertex="1" parent="1">
          <mxGeometry x="350" y="520" width="100" height="60" as="geometry" />
        </mxCell>
        <mxCell id="hnj8AC3YeiDMYb95IlZ8-38" style="edgeStyle=orthogonalEdgeStyle;rounded=0;orthogonalLoop=1;jettySize=auto;html=1;exitX=0.5;exitY=1;exitDx=0;exitDy=0;entryX=0.5;entryY=0;entryDx=0;entryDy=0;entryPerimeter=0;" edge="1" parent="1" source="hnj8AC3YeiDMYb95IlZ8-8" target="hnj8AC3YeiDMYb95IlZ8-36">
          <mxGeometry relative="1" as="geometry" />
        </mxCell>
        <mxCell id="hnj8AC3YeiDMYb95IlZ8-39" style="edgeStyle=orthogonalEdgeStyle;rounded=0;orthogonalLoop=1;jettySize=auto;html=1;exitX=0.5;exitY=1;exitDx=0;exitDy=0;exitPerimeter=0;entryX=0.5;entryY=0;entryDx=0;entryDy=0;entryPerimeter=0;" edge="1" parent="1" source="hnj8AC3YeiDMYb95IlZ8-36" target="hnj8AC3YeiDMYb95IlZ8-10">
          <mxGeometry relative="1" as="geometry" />
        </mxCell>
        <mxCell id="hnj8AC3YeiDMYb95IlZ8-41" value="Retirada na loja" style="strokeWidth=2;html=1;shape=mxgraph.flowchart.display;whiteSpace=wrap;" vertex="1" parent="1">
          <mxGeometry x="490" y="970" width="100" height="60" as="geometry" />
        </mxCell>
        <mxCell id="hnj8AC3YeiDMYb95IlZ8-42" value="frete" style="strokeWidth=2;html=1;shape=mxgraph.flowchart.display;whiteSpace=wrap;" vertex="1" parent="1">
          <mxGeometry x="630" y="880" width="100" height="60" as="geometry" />
        </mxCell>
        <mxCell id="hnj8AC3YeiDMYb95IlZ8-43" style="edgeStyle=orthogonalEdgeStyle;rounded=0;orthogonalLoop=1;jettySize=auto;html=1;exitX=0.5;exitY=1;exitDx=0;exitDy=0;exitPerimeter=0;entryX=0.5;entryY=0;entryDx=0;entryDy=0;entryPerimeter=0;" edge="1" parent="1" source="hnj8AC3YeiDMYb95IlZ8-25" target="hnj8AC3YeiDMYb95IlZ8-42">
          <mxGeometry relative="1" as="geometry" />
        </mxCell>
        <mxCell id="hnj8AC3YeiDMYb95IlZ8-45" value="" style="verticalLabelPosition=bottom;verticalAlign=top;html=1;shape=mxgraph.flowchart.on-page_reference;" vertex="1" parent="1">
          <mxGeometry x="660" y="980" width="40" height="40" as="geometry" />
        </mxCell>
        <mxCell id="hnj8AC3YeiDMYb95IlZ8-46" style="edgeStyle=orthogonalEdgeStyle;rounded=0;orthogonalLoop=1;jettySize=auto;html=1;exitX=0.5;exitY=1;exitDx=0;exitDy=0;exitPerimeter=0;entryX=0.5;entryY=0;entryDx=0;entryDy=0;entryPerimeter=0;" edge="1" parent="1" source="hnj8AC3YeiDMYb95IlZ8-42" target="hnj8AC3YeiDMYb95IlZ8-45">
          <mxGeometry relative="1" as="geometry" />
        </mxCell>
        <mxCell id="hnj8AC3YeiDMYb95IlZ8-47" style="edgeStyle=orthogonalEdgeStyle;rounded=0;orthogonalLoop=1;jettySize=auto;html=1;exitX=1;exitY=0.5;exitDx=0;exitDy=0;exitPerimeter=0;entryX=0;entryY=0.5;entryDx=0;entryDy=0;entryPerimeter=0;" edge="1" parent="1" source="hnj8AC3YeiDMYb95IlZ8-41" target="hnj8AC3YeiDMYb95IlZ8-45">
          <mxGeometry relative="1" as="geometry" />
        </mxCell>
        <mxCell id="hnj8AC3YeiDMYb95IlZ8-49" value="Fim" style="strokeWidth=2;html=1;shape=mxgraph.flowchart.start_1;whiteSpace=wrap;" vertex="1" parent="1">
          <mxGeometry x="350" y="1060" width="100" height="60" as="geometry" />
        </mxCell>
        <mxCell id="hnj8AC3YeiDMYb95IlZ8-50" style="edgeStyle=orthogonalEdgeStyle;rounded=0;orthogonalLoop=1;jettySize=auto;html=1;exitX=0.5;exitY=1;exitDx=0;exitDy=0;exitPerimeter=0;entryX=1;entryY=0.5;entryDx=0;entryDy=0;entryPerimeter=0;" edge="1" parent="1" source="hnj8AC3YeiDMYb95IlZ8-45" target="hnj8AC3YeiDMYb95IlZ8-49">
          <mxGeometry relative="1" as="geometry" />
        </mxCell>
        <mxCell id="hnj8AC3YeiDMYb95IlZ8-51" style="edgeStyle=orthogonalEdgeStyle;rounded=0;orthogonalLoop=1;jettySize=auto;html=1;exitX=0.5;exitY=1;exitDx=0;exitDy=0;exitPerimeter=0;entryX=0.5;entryY=0;entryDx=0;entryDy=0;entryPerimeter=0;" edge="1" parent="1" source="hnj8AC3YeiDMYb95IlZ8-35" target="hnj8AC3YeiDMYb95IlZ8-49">
          <mxGeometry relative="1" as="geometry" />
        </mxCell>
      </root>
    </mxGraphModel>
  </diagram>
</mxfile>
